<?xml version="1.0" standalone="no"?>
<!DOCTYPE svg PUBLIC "-//W3C//DTD SVG 20010904//EN"
 "http://www.w3.org/TR/2001/REC-SVG-20010904/DTD/svg10.dtd">
<svg version="1.0" xmlns="http://www.w3.org/2000/svg"
 width="137.000000pt" height="127.000000pt" viewBox="0 0 137.000000 127.000000"
 preserveAspectRatio="xMidYMid meet">

<g transform="translate(0.000000,127.000000) scale(0.100000,-0.100000)"
fill="#000000" stroke="none">
<path d="M963 990 l-101 -60 -80 46 -81 45 -105 -61 -106 -61 -80 46 -80 46
-103 -60 -102 -59 -3 -91 c-1 -50 0 -91 3 -91 4 0 37 18 75 40 38 22 71 40 74
40 3 0 6 -147 6 -328 0 -302 1 -328 18 -338 14 -9 36 0 121 49 88 51 101 62
87 72 -14 11 -16 43 -16 251 l0 239 75 43 c41 23 77 42 80 42 3 0 5 -78 5
-173 0 -223 -4 -219 145 -132 90 52 104 64 86 70 -19 6 -21 13 -21 93 l0 87
75 43 c41 23 77 42 80 42 3 0 5 -145 5 -323 0 -327 2 -347 36 -347 17 0 204
110 204 120 0 4 -7 10 -15 14 -13 5 -15 52 -15 338 l-1 333 -74 43 c-41 23
-78 42 -82 42 -5 -1 -54 -28 -110 -60z"/>
</g>
</svg>
